<?xml version="1.0" encoding="UTF-8"?>
<svg version="1.1" xmlns="http://www.w3.org/2000/svg" width="388" height="301">
<path d="M0 0 C5.46576625 2.4844392 7.54634723 5.72919034 10 11 C12.12227019 19.13536907 11.99622919 29.45588248 7.9296875 36.98046875 C5.44622325 40.64318804 2.69367688 43.50427238 -1 46 C-1.66 46 -2.32 46 -3 46 C-0.63536497 48.44091358 1.65656058 50.73064701 4.3359375 52.83203125 C10.6091176 57.84859641 10.6091176 57.84859641 11.71875 61.1171875 C11.87604211 64.59072149 11.0121592 66.97755225 9.375 70 C7 72 7 72 4.3125 72.6875 C-5.0935873 70.7352932 -13.53530645 61.83792108 -21 56 C-21.19335938 57.20398438 -21.38671875 58.40796875 -21.5859375 59.6484375 C-21.84853605 61.22402877 -22.11158001 62.79954585 -22.375 64.375 C-22.50132813 65.1690625 -22.62765625 65.963125 -22.7578125 66.78125 C-22.88671875 67.54179687 -23.015625 68.30234375 -23.1484375 69.0859375 C-23.32125244 70.1385376 -23.32125244 70.1385376 -23.49755859 71.21240234 C-24 73 -24 73 -26 75 C-28.9375 75.4375 -28.9375 75.4375 -32 75 C-38.96221238 65.88814103 -34.40363419 48.41147916 -33.40087891 37.65991211 C-33.12402728 34.67701962 -32.86029679 31.69315801 -32.59765625 28.70898438 C-32.42265751 26.78899102 -32.24690277 24.86906638 -32.0703125 22.94921875 C-31.99313995 22.06884445 -31.91596741 21.18847015 -31.8364563 20.28141785 C-31.33388626 15.01032118 -30.41028463 10.10573218 -29 5 C-25.24560547 3.92626953 -25.24560547 3.92626953 -23.03515625 4.58984375 C-20.13258945 5.17481403 -18.92913544 4.07718448 -16.4375 2.5625 C-10.89736543 -0.3671428 -6.18399481 -1.0322889 0 0 Z M-15 17 C-18.35751607 20.77511757 -20.29253608 24.33389981 -20.375 29.4375 C-20.39748981 32.81224293 -20.39748981 32.81224293 -19 34 C-13.4591016 34.67571932 -9.55050956 32.96267218 -5 30 C-1.89862265 27.13122595 -1.10960664 25.68199686 -0.4375 21.5 C-1.13950353 17.13197802 -2.56866174 15.69605149 -6 13 C-9.53945131 13 -12.27364417 14.91720456 -15 17 Z " fill="#A73F23" transform="translate(144,90)"/>
<path d="M0 0 C7.9048913 -0.5140464 13.96694159 1.86733834 20.453125 6.32421875 C26.73610894 12.33510496 29.48032403 19.51607136 29.90673828 28.08618164 C30.10077928 36.92525967 28.66326526 43.58197651 22.69140625 50.30859375 C13.56049919 58.97647307 2.13791376 62.85269242 -10.3125 62.58203125 C-13.34805598 62.23177479 -15.22157398 61.28619148 -17.546875 59.32421875 C-19.546875 56.32421875 -19.546875 56.32421875 -19.296875 52.94921875 C-18.546875 49.32421875 -18.546875 49.32421875 -17.54663086 47.12304688 C-16.22688227 43.42839539 -16.03273277 39.79921792 -15.80078125 35.91796875 C-15.68449351 34.27081576 -15.56794923 32.62368086 -15.45117188 30.9765625 C-15.27789016 28.39626262 -15.10883981 25.81578456 -14.94506836 23.23486328 C-14.78321718 20.73248672 -14.60534367 18.23162777 -14.42578125 15.73046875 C-14.38191788 14.96263062 -14.3380545 14.19479248 -14.29286194 13.40368652 C-13.96681731 8.97998577 -13.36723371 5.81045525 -10.546875 2.32421875 C-6.93883344 0.97120316 -3.79265936 0.48280786 0 0 Z M-1.546875 13.32421875 C-2.72822974 19.80771682 -2.66010474 26.18636382 -2.609375 32.76171875 C-2.60486328 33.87482422 -2.60035156 34.98792969 -2.59570312 36.13476562 C-2.58398693 38.86463976 -2.56758199 41.59440049 -2.546875 44.32421875 C4.92374956 42.05821898 10.63741948 39.78241916 14.953125 32.94921875 C15.90542511 27.94964318 15.39271642 23.89020445 12.765625 19.51171875 C8.4989583 15.47568268 4.22142119 14.01092068 -1.546875 13.32421875 Z " fill="#A73F23" transform="translate(216.546875,171.67578125)"/>
<path d="M0 0 C1.35351562 -0.04350586 1.35351562 -0.04350586 2.734375 -0.08789062 C9.34028526 -0.15140899 9.34028526 -0.15140899 12.56640625 2.1171875 C14.60076965 5.23247969 14.93504044 7.60980489 15 11.3125 C13.86349056 13.68883793 12.85558971 15.45691029 11 17.3125 C8.91864863 17.4124519 6.83374472 17.44217207 4.75 17.4375 C3.04070312 17.44136719 3.04070312 17.44136719 1.296875 17.4453125 C-2 17.3125 -2 17.3125 -7 16.3125 C-7.33 21.2625 -7.66 26.2125 -8 31.3125 C-3.1983779 31.23360571 -3.1983779 31.23360571 1.6027832 31.13232422 C5.31447871 31.10150527 6.83533664 31.20272442 10 33.3125 C11.11991112 36.91221432 11.29428259 38.65036418 9.75 42.125 C8 44.3125 8 44.3125 5 45.3125 C2.26134713 45.38301114 -0.45027588 45.40607765 -3.1875 45.375 C-3.93708984 45.37048828 -4.68667969 45.36597656 -5.45898438 45.36132812 C-7.30602383 45.34956354 -9.15302213 45.33162865 -11 45.3125 C-11 49.2725 -11 53.2325 -11 57.3125 C-6.38154167 58.85198611 -1.94518594 57.85087259 2.84765625 57.37109375 C3.88792969 57.35175781 4.92820313 57.33242187 6 57.3125 C8 59.3125 8 59.3125 8.4375 63.0625 C8.35541531 66.28725564 7.80544854 68.14304369 5.8125 70.6875 C0.3857003 75.75251305 -4.73422457 75.69613636 -11.89453125 75.55859375 C-15.65956739 75.2602324 -18.01597472 74.66830943 -21 72.3125 C-24.81368867 66.70683714 -24.49699418 61.09428398 -24.4375 54.5625 C-24.43210205 53.428125 -24.4267041 52.29375 -24.42114258 51.125 C-23.75570387 12.91356289 -23.75570387 12.91356289 -15.65307617 2.59765625 C-11.32059172 -0.77056087 -5.21831627 0.05591053 0 0 Z " fill="#A73F23" transform="translate(184,90.6875)"/>
<path d="M0 0 C1.3921875 0.3403125 1.3921875 0.3403125 2.8125 0.6875 C5.58985411 8.35032038 5.19678162 16.1960275 5.29101562 24.25976562 C5.45230221 31.10854485 5.59182392 36.46682392 10.6875 41.5625 C13.2339648 42.91062842 14.97077618 42.92431032 17.8125 42.6875 C20.89147235 36.44005029 22.06563544 30.13405578 23.3125 23.3125 C26.95060044 3.54939956 26.95060044 3.54939956 30.8125 -0.3125 C36.03217956 -0.86778506 36.03217956 -0.86778506 38.48193359 0.87548828 C41.808026 5.40507687 40.06201713 12.88883359 39.33496094 18.12988281 C38.69696062 21.71127113 37.96152537 25.25814468 37.1875 28.8125 C36.95160156 30.01003906 36.71570313 31.20757812 36.47265625 32.44140625 C34.56224524 41.38604855 31.68613775 49.6327923 24.5625 55.75 C20.28292294 58.41053352 15.78312551 58.94487867 10.8125 58.6875 C4.139636 56.84670993 -1.71928233 52.4252894 -5.546875 46.62890625 C-11.24256951 35.71215843 -9.63587145 23.26826683 -7.875 11.5 C-7.75737305 10.67419434 -7.63974609 9.84838867 -7.51855469 8.99755859 C-7.39254883 8.22105957 -7.26654297 7.44456055 -7.13671875 6.64453125 C-6.97175903 5.60776245 -6.97175903 5.60776245 -6.8034668 4.55004883 C-5.51742431 0.66133771 -4.04771635 -0.39683494 0 0 Z " fill="#A73F23" transform="translate(157.1875,173.3125)"/>
<path d="M0 0 C0.71510742 0.00749268 1.43021484 0.01498535 2.16699219 0.02270508 C16.11336395 0.30421168 16.11336395 0.30421168 21.125 4.5 C22.77527119 7.95771106 22.64004379 9.64236863 21.4375 13.25 C15.88444515 16.95203656 9.12135633 15.50638675 2.8125 14.25 C0.646875 13.755 0.646875 13.755 -1.5625 13.25 C-2.5525 16.88 -3.5425 20.51 -4.5625 24.25 C-2.9125 24.188125 -1.2625 24.12625 0.4375 24.0625 C5.84644797 24.05552071 9.56147669 24.9449708 14.4375 27.25 C15.0975 27.91 15.7575 28.57 16.4375 29.25 C16.0625 32.375 16.0625 32.375 15.4375 35.25 C7.35668156 37.7578402 0.68067463 36.77434239 -7.5625 35.25 C-7.8925 38.22 -8.2225 41.19 -8.5625 44.25 C-3.61954667 45.48573833 1.14425692 45.57094099 6.22265625 45.7734375 C9.4375 46.25 9.4375 46.25 11.33984375 47.63671875 C12.4375 49.25 12.4375 49.25 12.9375 51.6875 C12.4375 54.25 12.4375 54.25 10.0625 56.5 C3.6241915 60.79220567 -5.76232301 60.19612184 -13.2578125 58.71875 C-17.15408719 57.35579459 -20.02410975 55.49913951 -22.5625 52.25 C-27.42603487 37.65939539 -18.09577701 20.57205404 -12.5625 7.25 C-12.23636719 6.32574219 -11.91023438 5.40148437 -11.57421875 4.44921875 C-9.2341004 -0.63760222 -4.85265458 -0.06550076 0 0 Z " fill="#A73F23" transform="translate(285.5625,99.75)"/>
<path d="M0 0 C3.7842084 2.29297373 6.17036011 4.58933518 8.5 8.375 C8.8905058 11.18461314 8.74625968 13.5183877 8.5 16.375 C6.26171875 17.0546875 6.26171875 17.0546875 3.5 17.375 C1.39453125 16.1953125 1.39453125 16.1953125 -0.6875 14.5 C-5.50906396 10.99340803 -9.62890097 10.39951398 -15.5 10.375 C-13.85919838 15.40679163 -11.63783782 18.50647002 -8 22.375 C-1.9299505 28.93854946 0.07144162 33.71115474 -0.21484375 42.78515625 C-0.59679499 46.25411063 -1.45022256 48.54772077 -3.5 51.375 C-8.98038141 55.32201044 -13.97193303 55.08975186 -20.5 54.375 C-25.87531186 53.10942024 -30.18236467 51.69263533 -34.125 47.75 C-36.54568104 43.56882366 -37.02182536 40.18957739 -36.5 35.375 C-35.4375 33.375 -35.4375 33.375 -33.5 32.375 C-27.8567979 31.48979183 -24.8372546 33.0076347 -20.39453125 36.18359375 C-18.42225113 37.42389362 -16.77432599 37.93627193 -14.5 38.375 C-15.97049034 35.04704818 -17.28739668 32.58760332 -19.875 30 C-24.69851289 25.17648711 -28.6256255 19.47564914 -28.75 12.5625 C-28.67642646 8.30136562 -28.52826395 5.59253044 -25.5 2.375 C-18.44258881 -3.10806561 -8.05609475 -3.63134574 0 0 Z " fill="#A73F23" transform="translate(338.5,116.625)"/>
<path d="M0 0 C0.68964844 -0.02900391 1.37929687 -0.05800781 2.08984375 -0.08789062 C5.69705726 -0.13272215 7.74327211 0.23308345 10.85546875 2.109375 C12.875 4.3125 12.875 4.3125 13.0625 7.875 C11.875 11.3125 11.875 11.3125 9.32421875 13.015625 C5.17431989 14.57594937 1.87638724 14.65432107 -2.5 14.5 C-3.23605469 14.48646484 -3.97210938 14.47292969 -4.73046875 14.45898438 C-6.52896743 14.42394869 -8.32708422 14.37015288 -10.125 14.3125 C-9.465 19.2625 -8.805 24.2125 -8.125 29.3125 C-6.206875 29.065 -6.206875 29.065 -4.25 28.8125 C9.53869164 27.37708415 9.53869164 27.37708415 14 30.5 C15.875 33.3125 15.875 33.3125 16.4375 35.875 C15.6842435 39.13911149 14.46016235 40.20242543 11.875 42.3125 C8.88671875 43.140625 8.88671875 43.140625 5.5625 43.5625 C4.47324219 43.71203125 3.38398437 43.8615625 2.26171875 44.015625 C-1.21871857 44.32071524 -4.63305909 44.36560937 -8.125 44.3125 C-8.10179687 45.49328125 -8.07859375 46.6740625 -8.0546875 47.890625 C-8.03592503 49.44791033 -8.01772534 51.00520252 -8 52.5625 C-7.97486328 53.72845703 -7.97486328 53.72845703 -7.94921875 54.91796875 C-7.88492916 62.43985101 -7.88492916 62.43985101 -10.125 65.3125 C-13.0625 66.1875 -13.0625 66.1875 -16.125 66.3125 C-19.125 64.3125 -19.125 64.3125 -19.83569336 62.59765625 C-21.62651936 53.58511898 -21.54692112 44.46671718 -21.6875 35.3125 C-21.74604959 31.9582164 -21.81103584 28.60410664 -21.87890625 25.25 C-21.89265289 24.45537354 -21.90639954 23.66074707 -21.92056274 22.84204102 C-22.02502818 17.87433284 -22.37405489 13.03137181 -23.21459961 8.125 C-23.125 6.3125 -23.125 6.3125 -21.78344727 4.6328125 C-15.77753633 -0.14857516 -7.3464093 0.10415514 0 0 Z " fill="#A73F23" transform="translate(63.125,109.6875)"/>
<path d="M0 0 C2.375 -0.125 2.375 -0.125 5 0 C5.66 0.66 6.32 1.32 7 2 C6.625 4.5 6.625 4.5 6 7 C6 10.85302151 10.58753145 14.27151181 13.17773438 17.03710938 C17.03449021 21.37160528 17.03449021 21.37160528 16.83984375 24.91796875 C16.56269531 25.60503906 16.28554688 26.29210937 16 27 C12.26512223 26.5020163 10.18762365 26.12508244 7 24 C7 26.31 7 28.62 7 31 C3.37 32.32 -0.26 33.64 -4 35 C-4.00257813 35.804375 -4.00515625 36.60875 -4.0078125 37.4375 C-4.29357342 46.12463184 -5.75192582 54.24181534 -7.8125 62.6875 C-8.06080566 63.73873047 -8.30911133 64.78996094 -8.56494141 65.87304688 C-8.81808105 66.86755859 -9.0712207 67.86207031 -9.33203125 68.88671875 C-9.55608643 69.77576904 -9.7801416 70.66481934 -10.01098633 71.58081055 C-11.19384007 74.47414496 -12.61139296 76.00679947 -15 78 C-17.5625 78.5625 -17.5625 78.5625 -20 78 C-23.06039803 74.62300908 -23.19262763 71.72121674 -23.12231445 67.29199219 C-22.90384147 63.19813114 -22.31558602 59.17347843 -21.6875 55.125 C-21.4855603 53.80326782 -21.4855603 53.80326782 -21.27954102 52.45483398 C-20.15685816 45.40495973 -18.77758401 38.63596729 -15.625 32.1875 C-14.68838038 29.86099942 -14.68838038 29.86099942 -16.375 27.375 C-16.91125 26.59125 -17.4475 25.8075 -18 25 C-18 24.01 -18 23.02 -18 22 C-19.32 22 -20.64 22 -22 22 C-21.75 20.125 -21.75 20.125 -21 18 C-19.66666667 17.33333333 -18.33333333 16.66666667 -17 16 C-16.19471111 13.94999129 -16.19471111 13.94999129 -16 12 C-17.65 11.67 -19.3 11.34 -21 11 C-20 8 -20 8 -17.89453125 6.8515625 C-14.45280886 5.83901799 -11.26759966 5.57575325 -7.6875 5.375 C-6.43324219 5.30023438 -5.17898438 5.22546875 -3.88671875 5.1484375 C-2.93410156 5.09945312 -1.98148437 5.05046875 -1 5 C-0.67 3.35 -0.34 1.7 0 0 Z M-17 9 C-13 10 -13 10 -13 10 Z M8 17 C8.66 18.65 9.32 20.3 10 22 C10.66 21.67 11.32 21.34 12 21 C10.68 19.68 9.36 18.36 8 17 Z " fill="#AF522F" transform="translate(264,68)"/>
<path d="M0 0 C2.125 0.9375 2.125 0.9375 4 2 C3.92652344 2.88558594 3.85304688 3.77117187 3.77734375 4.68359375 C4.10241413 9.52543157 6.59420641 11.86770498 9.56640625 15.53515625 C11 18 11 18 10.71484375 20.80859375 C10.47894531 21.53175781 10.24304688 22.25492188 10 23 C9.39671875 23.09152344 8.7934375 23.18304688 8.171875 23.27734375 C5.46742737 24.17720492 4.7917686 25.20702019 3.25 27.5625 C2.82203125 28.20316406 2.3940625 28.84382813 1.953125 29.50390625 C1.63859375 29.99761719 1.3240625 30.49132812 1 31 C1.33 31.66 1.66 32.32 2 33 C2.52933772 41.7340723 2.24780596 50.26854629 0.625 58.875 C0.49899414 59.54611816 0.37298828 60.21723633 0.24316406 60.90869141 C-0.42909931 64.1635526 -1.12872077 66.19308116 -3 69 C-6.4375 69.5 -6.4375 69.5 -10 69 C-15.1896739 62.48910178 -13.38126261 53.41108689 -12.578125 45.59765625 C-11.32596888 34.65193775 -11.32596888 34.65193775 -10 32 C-10.7425 31.79375 -11.485 31.5875 -12.25 31.375 C-15.92322153 29.53838924 -17.09228016 27.61104113 -19 24 C-19.8125 20.6875 -19.8125 20.6875 -20 17 C-20.07089844 16.25105469 -20.14179688 15.50210938 -20.21484375 14.73046875 C-20.25434222 12.08407145 -20.1120436 10.41317962 -19 8 C-14.48272331 4.63688368 -9.94091531 2.90130939 -4.3125 3.1875 C-3.549375 3.455625 -2.78625 3.72375 -2 4 C-2 3.01 -2 2.02 -2 1 C-1.34 0.67 -0.68 0.34 0 0 Z " fill="#AA4727" transform="translate(264,156)"/>
<path d="M0 0 C3 1.6875 3 1.6875 5 4.6875 C5.07905064 7.01949388 5.08798769 9.35582622 5 11.6875 C3.7625 11.4709375 3.7625 11.4709375 2.5 11.25 C1.345 11.064375 0.19 10.87875 -1 10.6875 C-1.6496875 10.58050781 -2.299375 10.47351563 -2.96875 10.36328125 C-7.2317096 9.73203531 -10.73664507 9.72824514 -15 10.6875 C-14.96933754 12.57610302 -14.96933754 12.57610302 -14 14.6875 C-11.21251869 16.68893552 -11.21251869 16.68893552 -7.8125 18.5 C-1.61803295 22.08080704 3.64085117 25.6100535 6 32.6875 C6.40900814 36.88769894 6.40839647 40.5824272 4.9375 44.5625 C1.17132484 48.69314372 -2.18188675 49.50707655 -7.58203125 50.04296875 C-19.04854256 50.45931901 -19.04854256 50.45931901 -22.875 47.3125 C-25.92758547 43.54165912 -26.39610183 41.53974741 -26 36.6875 C-24.9375 34.8125 -24.9375 34.8125 -23 33.6875 C-17.42774975 33.13027498 -12.3631837 34.3254216 -7 35.6875 C-9.48931889 32.97853533 -11.56543515 30.90478242 -14.875 29.25 C-20.04911144 26.66294428 -24.85490152 23.22389702 -27 17.6875 C-27.64653896 13.06399468 -27.66677969 9.02105939 -25.5625 4.8125 C-18.17476669 -1.31391299 -9.14034406 -3.56511345 0 0 Z " fill="#A73F23" transform="translate(91,167.3125)"/>
<path d="M0 0 C0.73240402 -0.00287018 1.46480804 -0.00574036 2.21940613 -0.00869751 C3.76680271 -0.01073522 5.31422523 -0.00522575 6.86157227 0.00732422 C9.21234868 0.02331425 11.56138786 0.007503 13.91210938 -0.01171875 C15.42057667 -0.00973491 16.92904289 -0.00588833 18.4375 0 C19.48004692 -0.00910904 19.48004692 -0.00910904 20.5436554 -0.0184021 C25.59072521 0.05312488 29.04393629 1.02476939 33.41796875 3.3984375 C34.63143726 7.03884304 34.63143726 8.75803196 33.41796875 12.3984375 C29.83324833 14.78825111 28.1644311 14.63854007 23.91796875 14.5859375 C22.77328125 14.57949219 21.62859375 14.57304687 20.44921875 14.56640625 C17.41796875 14.3984375 17.41796875 14.3984375 14.41796875 13.3984375 C14.49015625 14.24921875 14.56234375 15.1 14.63671875 15.9765625 C15.22334185 23.63525303 15.57163589 31.2798083 15.66796875 38.9609375 C15.68923828 39.80495117 15.71050781 40.64896484 15.73242188 41.51855469 C15.7604789 46.53875878 15.31782144 50.09959265 12.41796875 54.3984375 C9.29176592 55.46267676 7.36426528 55.63501163 4.16796875 54.8359375 C1.54548742 52.68175641 1.24004744 50.6830658 0.41796875 47.3984375 C0.29926883 44.33777795 0.5016741 41.32565547 0.73046875 38.2734375 C0.78460938 37.43683594 0.83875 36.60023438 0.89453125 35.73828125 C1.05670324 33.2906157 1.2354533 30.84465865 1.41796875 28.3984375 C1.50433594 27.14289063 1.59070313 25.88734375 1.6796875 24.59375 C2.25418922 16.88977608 2.25418922 16.88977608 3.41796875 13.3984375 C2.6703125 13.36105469 1.92265625 13.32367188 1.15234375 13.28515625 C-0.32492188 13.18654297 -0.32492188 13.18654297 -1.83203125 13.0859375 C-2.8065625 13.02792969 -3.78109375 12.96992188 -4.78515625 12.91015625 C-7.88422528 12.34314781 -9.34773379 11.59619271 -11.58203125 9.3984375 C-12.08203125 6.3984375 -12.08203125 6.3984375 -11.58203125 3.3984375 C-8.23924329 -0.17020743 -4.60213187 -0.0398619 0 0 Z " fill="#A73F23" transform="translate(109.58203125,173.6015625)"/>
<path d="M0 0 C4.35641765 2.92964331 7.52941047 6.05000306 8.7890625 11.203125 C9.56557588 18.10812092 8.88395279 23.49993518 4.7890625 29.203125 C0.04348568 34.79081879 -3.96467749 38.80253443 -11.5234375 39.515625 C-18.02700237 38.96447543 -23.53245528 36.88160722 -28.2109375 32.203125 C-31.65810298 26.90926373 -32.94121515 21.0957657 -31.7734375 14.87109375 C-29.8933264 8.60049592 -26.98398173 3.23218175 -21.6484375 -0.671875 C-14.39466036 -4.01977214 -6.96153853 -3.93840028 0 0 Z M-17.2109375 8.953125 C-20.17227341 12.2846279 -21.09727422 14.16121165 -21.5859375 18.640625 C-21.14154286 22.86237408 -20.35918175 24.38627489 -17.2109375 27.203125 C-14.41611941 28.62750252 -14.41611941 28.62750252 -11.2109375 28.203125 C-7.23482908 25.91208967 -4.72789786 23.17739644 -2.5859375 19.140625 C-1.99646295 16.21390087 -1.99646295 16.21390087 -3.0859375 13.578125 C-5.95495824 10.37157241 -9.21214772 8.72283492 -13.2109375 7.203125 C-15.40300134 6.98362346 -15.40300134 6.98362346 -17.2109375 8.953125 Z " fill="#A73F23" transform="translate(305.2109375,171.796875)"/>
<path d="M0 0 C-0.4793247 4.31392226 -1.7457985 6.16569547 -5 9 C-0.05 9.99 -0.05 9.99 5 11 C5.495 13.475 5.495 13.475 6 16 C5.39671875 16.19335938 4.7934375 16.38671875 4.171875 16.5859375 C2.97304687 16.97652344 2.97304687 16.97652344 1.75 17.375 C0.96109375 17.63023438 0.1721875 17.88546875 -0.640625 18.1484375 C-2.86627958 18.95173667 -4.90931672 19.89711662 -7 21 C-6.6596875 22.5159375 -6.6596875 22.5159375 -6.3125 24.0625 C-5.90503271 29.1965878 -6.9625257 32.55626195 -10.29296875 36.55078125 C-12.95162161 39.08113451 -14.87563539 39.98223363 -18.5 40.5 C-23.591745 39.77260786 -26.717031 38.31764384 -30.3125 34.625 C-32.01485352 31.97689453 -32.64550202 30.10185729 -33 27 C-34.27875 27.185625 -35.5575 27.37125 -36.875 27.5625 C-40.75 28.125 -40.75 28.125 -43 27 C-42.60534319 24.13873816 -42.26087817 23.20860296 -39.953125 21.36328125 C-39.30859375 20.91339844 -38.6640625 20.46351562 -38 20 C-38.71027344 19.82984375 -39.42054687 19.6596875 -40.15234375 19.484375 C-41.07144531 19.24203125 -41.99054688 18.9996875 -42.9375 18.75 C-43.85402344 18.51796875 -44.77054687 18.2859375 -45.71484375 18.046875 C-48 17 -48 17 -48.81640625 14.890625 C-48.87699219 14.26671875 -48.93757813 13.6428125 -49 13 C-43.32996393 9.78697956 -37.08345444 11.35761366 -31 12.625 C-28.93704307 13.22034924 -28.93704307 13.22034924 -27 12 C-26.34444881 9.47266765 -26.34444881 9.47266765 -26 7 C-23.125 6.375 -23.125 6.375 -20 6 C-18 8 -18 8 -18 12 C-15.58149677 9.754247 -13.76531628 7.6444186 -11.9375 4.875 C-8.50606012 -0.21681401 -5.83196388 -0.22007411 0 0 Z M-6 3 C-7.98 4.98 -9.96 6.96 -12 9 C-11.67 9.66 -11.34 10.32 -11 11 C-8.69 8.69 -6.38 6.38 -4 4 C-4.66 3.67 -5.32 3.34 -6 3 Z M-6.625 13.5 C-7.85089844 13.91765625 -7.85089844 13.91765625 -9.1015625 14.34375 C-9.72804687 14.5603125 -10.35453125 14.776875 -11 15 C-10.67 15.66 -10.34 16.32 -10 17 C-5.28596212 16.52060632 -1.33420699 16.03165952 3 14 C-1.02917501 11.31388333 -2.26337649 12.00458623 -6.625 13.5 Z M-44 14 C-41.41073669 16.58926331 -39.97294721 16.37398043 -36.375 16.625 C-34.87066406 16.73714844 -34.87066406 16.73714844 -33.3359375 16.8515625 C-32.56507812 16.90054688 -31.79421875 16.94953125 -31 17 C-33.26562673 14.73437327 -34.84160705 14.05537251 -38.04296875 13.90234375 C-38.75066406 13.91394531 -39.45835938 13.92554687 -40.1875 13.9375 C-41.445625 13.958125 -42.70375 13.97875 -44 14 Z M-34 21 C-36.475 22.485 -36.475 22.485 -39 24 C-36 25.33333333 -36 25.33333333 -33 24 C-33.33 23.01 -33.66 22.02 -34 21 Z " fill="#AD4D2C" transform="translate(110,75)"/>
<path d="M0 0 C0.98548828 -0.01224609 1.97097656 -0.02449219 2.98632812 -0.03710938 C8.12062322 -0.04745382 12.38562414 0.12489458 17.1875 2.1875 C17.6825 5.6525 17.6825 5.6525 18.1875 9.1875 C14.18311779 12.0077907 10.06413461 11.19613471 5.4375 10.8125 C4.64472656 10.75578125 3.85195312 10.6990625 3.03515625 10.640625 C1.08518265 10.49966305 -0.86378671 10.3449288 -2.8125 10.1875 C-2.80089844 10.81398438 -2.78929687 11.44046875 -2.77734375 12.0859375 C-2.76832031 12.90320313 -2.75929687 13.72046875 -2.75 14.5625 C-2.73839844 15.37460938 -2.72679687 16.18671875 -2.71484375 17.0234375 C-2.8125 19.1875 -2.8125 19.1875 -3.8125 21.1875 C-3.1525 20.8575 -2.4925 20.5275 -1.8125 20.1875 C0.22805005 20.11684383 2.27084257 20.10328024 4.3125 20.125 C5.40820312 20.13402344 6.50390625 20.14304687 7.6328125 20.15234375 C8.47585937 20.16394531 9.31890625 20.17554687 10.1875 20.1875 C10.3671875 25.9765625 10.3671875 25.9765625 8.75 27.875 C5.66915797 29.45299226 2.56411142 30.31292905 -0.7890625 31.1484375 C-2.98884113 32.04108816 -2.98884113 32.04108816 -3.9921875 34.3125 C-5.16974175 38.43954728 -5.92648736 42.61519731 -6.66796875 46.8359375 C-7.29650432 50.21516102 -7.87495817 52.28118726 -9.8125 55.1875 C-12.25 55.625 -12.25 55.625 -14.8125 55.1875 C-17.38911511 52.74617255 -17.80279634 51.27216916 -18.2109375 47.7109375 C-18.22306125 46.32815608 -18.21395486 44.94508149 -18.1875 43.5625 C-18.18169922 42.8190332 -18.17589844 42.07556641 -18.16992188 41.30957031 C-18.0266485 34.97105019 -17.06045414 28.89328941 -15.88476562 22.67529297 C-14.8294485 16.93037879 -14.58310052 11.44364622 -14.8046875 5.59375 C-14.8125 3.1875 -14.8125 3.1875 -13.8125 1.1875 C-9.26706527 -0.32764491 -4.76091271 0.00307751 0 0 Z " fill="#A73F23" transform="translate(218.8125,82.8125)"/>
<path d="M0 0 C1.0007998 5.12307432 0.89452858 8.61605426 -0.65234375 13.58984375 C-1.01650391 14.78544922 -1.38066406 15.98105469 -1.75585938 17.21289062 C-2.34077148 19.05657227 -2.34077148 19.05657227 -2.9375 20.9375 C-3.32357422 22.19369141 -3.70964844 23.44988281 -4.10742188 24.74414062 C-5.05893154 27.83361027 -6.02342781 30.91837927 -7 34 C-5.12054688 34.05607422 -5.12054688 34.05607422 -3.203125 34.11328125 C-1.55205379 34.17894885 0.09898655 34.24539593 1.75 34.3125 C2.575 34.33505859 3.4 34.35761719 4.25 34.38085938 C11.79475636 34.71550583 11.79475636 34.71550583 15 38 C14.8125 40.3125 14.8125 40.3125 14 43 C8.00766846 47.53473738 1.26394309 47.6995618 -6 47 C-10.42973204 45.82239906 -14.42811622 44.50294151 -17.78125 41.296875 C-20.42536653 36.31373231 -18.98337607 31.1657622 -17.42553711 26.04907227 C-17.20260986 25.35225342 -16.97968262 24.65543457 -16.75 23.9375 C-16.28664149 22.44565957 -15.82442026 20.95346548 -15.36328125 19.4609375 C-15.13205566 18.71811523 -14.90083008 17.97529297 -14.66259766 17.20996094 C-14.03009163 15.10036458 -13.46099985 12.9857414 -12.91796875 10.8515625 C-12.59441406 9.60117188 -12.27085937 8.35078125 -11.9375 7.0625 C-11.65777344 5.93972656 -11.37804687 4.81695312 -11.08984375 3.66015625 C-10 1 -10 1 -8.08203125 -0.40234375 C-5.18032453 -1.23529146 -2.90471341 -0.66016214 0 0 Z " fill="#A73F23" transform="translate(232,119)"/>
<path d="M0 0 C3 0.375 3 0.375 6 2.375 C9.00475664 14.60865205 4.40222221 31.70985225 0 43.375 C-2.19163981 46.02757993 -3.19118392 47.19745501 -6.5625 47.9375 C-9 47.375 -9 47.375 -10.8125 45.375 C-13.41269504 38.80608621 -11.74462556 31.30913226 -10.6875 24.5 C-10.55214844 23.61957031 -10.41679687 22.73914063 -10.27734375 21.83203125 C-6.92267219 0.86533402 -6.92267219 0.86533402 0 0 Z " fill="#A73F23" transform="translate(253,98.625)"/>
<path d="M0 0 C4.95886554 6.3673696 3.58297263 14.73348458 2.74072266 22.34228516 C2.42615977 24.73540156 2.07058638 27.1169266 1.6875 29.5 C1.57003418 30.24080811 1.45256836 30.98161621 1.33154297 31.74487305 C0.48568956 36.52669953 -0.73027402 40.68863325 -3 45 C-6.1875 45.9375 -6.1875 45.9375 -9 46 C-15.18213837 38.47391851 -13.4668956 27.6490496 -12.62109375 18.4453125 C-12.46211482 16.94201931 -12.29688225 15.43937257 -12.125 13.9375 C-12.04660889 13.2360083 -11.96821777 12.5345166 -11.88745117 11.81176758 C-11.36992447 7.67701208 -10.66772923 3.83111225 -9 0 C-5.40997619 -1.1966746 -3.61734062 -1.05505768 0 0 Z " fill="#A73F23" transform="translate(98,117)"/>
<path d="M0 0 C3.5 0.4375 3.5 0.4375 5.1953125 1.484375 C7.2155635 4.50870284 6.94156675 7.61262524 6.875 11.125 C6.86774902 11.87088379 6.86049805 12.61676758 6.85302734 13.38525391 C6.65075987 21.74857403 6.22448878 32.35076683 1.5 39.4375 C-1.9375 39.9375 -1.9375 39.9375 -5.5 39.4375 C-11.37403743 32.06800809 -8.67098769 20.62540051 -7.6875 11.8125 C-7.61764893 11.13791748 -7.54779785 10.46333496 -7.47583008 9.76831055 C-6.76628098 4.18017015 -5.92745754 0.74093219 0 0 Z " fill="#A73F23" transform="translate(259.5,185.5625)"/>
<path d="M0 0 C2.97 0 5.94 0 9 0 C11.40107847 4.1351907 11.1163692 7.31433474 9.953125 11.7734375 C8.28530187 15.66958171 5.70806894 18.01835992 2 20 C-3.2023044 20.82141648 -6.60139917 19.83465387 -11 17 C-14.47822112 13.52177888 -15.54625711 10.87773605 -16 6 C-11.05 4.515 -11.05 4.515 -6 3 C-5.05598958 5.24609375 -4.11197917 7.4921875 -3.16796875 9.73828125 C-1.97554124 12.3282894 -1.97554124 12.3282894 1 15 C0.67 10.05 0.34 5.1 0 0 Z " fill="#F1E195" transform="translate(93,95)"/>
<path d="M0 0 C0.33 0 0.66 0 1 0 C1.04898437 0.88042969 1.09796875 1.76085937 1.1484375 2.66796875 C1.22320312 3.82941406 1.29796875 4.99085937 1.375 6.1875 C1.44460938 7.33605469 1.51421875 8.48460938 1.5859375 9.66796875 C1.97509574 12.79959117 2.6809851 15.15285809 4 18 C1.69 18.99 -0.62 19.98 -3 21 C-3.515625 20.54625 -4.03125 20.0925 -4.5625 19.625 C-7.0345541 17.77731802 -7.0345541 17.77731802 -10.5625 17.125 C-14 16 -14 16 -15.9375 13.5625 C-17 11 -17 11 -17 8 C-16.46890625 7.74605469 -15.9378125 7.49210937 -15.390625 7.23046875 C-11.6675828 5.41650476 -8.20237785 3.6686482 -5 1 C-5.66 3.97 -6.32 6.94 -7 10 C-3.88403088 9.33372488 -3.88403088 9.33372488 -2.83203125 6.93359375 C-2.49558594 6.10988281 -2.15914063 5.28617187 -1.8125 4.4375 C-1.46832031 3.61121094 -1.12414062 2.78492187 -0.76953125 1.93359375 C-0.38861328 0.97646484 -0.38861328 0.97646484 0 0 Z " fill="#F1E195" transform="translate(263,82)"/>
<path d="M0 0 C0.33 0 0.66 0 1 0 C1.495 6.93 1.495 6.93 2 14 C2.66 14 3.32 14 4 14 C4.33 12.35 4.66 10.7 5 9 C5.99 9.33 6.98 9.66 8 10 C6.65216226 14.41110531 4.97248797 16.61650722 1 19 C-2.5625 19.1875 -2.5625 19.1875 -6 19 C-6.70125 19.268125 -7.4025 19.53625 -8.125 19.8125 C-10 20 -10 20 -12.5625 18 C-15.30381918 14.6260687 -16.63110672 12.10667983 -18 8 C-17.67 7.01 -17.34 6.02 -17 5 C-17 5.66 -17 6.32 -17 7 C-10.46362008 5.65819306 -10.46362008 5.65819306 -5 2 C-6.20381448 4.49361571 -7.45428722 6.68143083 -9 9 C-9.39013716 10.9896995 -9.73202649 12.99019869 -10 15 C-6.41933271 13.91104996 -6.41933271 13.91104996 -3.8125 11.375 C-2.64745415 7.96948135 -1.85944693 4.4950842 -1 1 C-0.67 0.67 -0.34 0.34 0 0 Z " fill="#F1E194" transform="translate(262,168)"/>
<path d="M0 0 C0 0.66 0 1.32 0 2 C-4.29 1.67 -8.58 1.34 -13 1 C-9.7 1.66 -6.4 2.32 -3 3 C-3 4.32 -3 5.64 -3 7 C-4.98 7.99 -6.96 8.98 -9 10 C-6.03 10 -3.06 10 0 10 C-0.33 10.66 -0.66 11.32 -1 12 C-3.43359375 12.66796875 -3.43359375 12.66796875 -6.4375 13.1875 C-7.92056641 13.45626953 -7.92056641 13.45626953 -9.43359375 13.73046875 C-12 14 -12 14 -14 13 C-13.60534319 10.13873816 -13.26087817 9.20860296 -10.953125 7.36328125 C-10.30859375 6.91339844 -9.6640625 6.46351562 -9 6 C-9.71027344 5.82984375 -10.42054687 5.6596875 -11.15234375 5.484375 C-12.07144531 5.24203125 -12.99054688 4.9996875 -13.9375 4.75 C-14.85402344 4.51796875 -15.77054687 4.2859375 -16.71484375 4.046875 C-19 3 -19 3 -19.81640625 0.890625 C-19.87699219 0.26671875 -19.93757813 -0.3571875 -20 -1 C-13.93409284 -4.43734739 -6.02731878 -3.01365939 0 0 Z " fill="#A73F23" transform="translate(81,89)"/>
<path d="M0 0 C0 0.33 0 0.66 0 1 C-1.65 1.33 -3.3 1.66 -5 2 C-4.34 2.33 -3.68 2.66 -3 3 C-3 3.66 -3 4.32 -3 5 C-3.99 5.66 -4.98 6.32 -6 7 C-6.33 7.99 -6.66 8.98 -7 10 C-9.4375 11.75 -9.4375 11.75 -12 13 C-12.66 12.67 -13.32 12.34 -14 12 C-14.99 12 -15.98 12 -17 12 C-17 9.36 -17 6.72 -17 4 C-5.47835991 -1.92482916 -5.47835991 -1.92482916 0 0 Z " fill="#D7A86B" transform="translate(262,160)"/>
<path d="M0 0 C0.66 0 1.32 0 2 0 C2 1.32 2 2.64 2 4 C2.66 4 3.32 4 4 4 C4.33 5.65 4.66 7.3 5 9 C5.66 8.34 6.32 7.68 7 7 C8.98362069 9.91708924 8.9876191 11.12380904 8.625 14.75 C8.41875 15.8225 8.2125 16.895 8 18 C5.625 17.6875 5.625 17.6875 3 17 C0.57520264 13.36280395 0.61337423 11.14296518 0.375 6.8125 C0.30023438 5.54019531 0.22546875 4.26789063 0.1484375 2.95703125 C0.09945313 1.98121094 0.05046875 1.00539063 0 0 Z " fill="#BA6C3C" transform="translate(263,81)"/>
<path d="M0 0 C2.66735273 2.48952921 4.55746343 4.63408134 6 8 C5.01 8 4.02 8 3 8 C3.33 8.99 3.66 9.98 4 11 C3.34 11 2.68 11 2 11 C2 12.65 2 14.3 2 16 C0.68 16 -0.64 16 -2 16 C-1.85890014 13.89551062 -1.71195825 11.7914123 -1.5625 9.6875 C-1.48128906 8.51574219 -1.40007812 7.34398437 -1.31640625 6.13671875 C-1 3 -1 3 0 0 Z " fill="#C17848" transform="translate(265,166)"/>
<path d="M0 0 C0 0.33 0 0.66 0 1 C-1.65 1.33 -3.3 1.66 -5 2 C-4.34 2.33 -3.68 2.66 -3 3 C-3.33 3.66 -3.66 4.32 -4 5 C-6.31 5 -8.62 5 -11 5 C-10.67 5.66 -10.34 6.32 -10 7 C-11.98 7 -13.96 7 -16 7 C-16 5.68 -16 4.36 -16 3 C-5.62642369 -1.77676538 -5.62642369 -1.77676538 0 0 Z " fill="#AD4F2A" transform="translate(262,160)"/>
<path d="M0 0 C-2.35953094 2.35953094 -3.77895617 2.49141413 -7 3 C-6.67 3.99 -6.34 4.98 -6 6 C-8.78823655 7.0326802 -9.8677274 7.04509293 -12.75 6.0625 C-13.4925 5.711875 -14.235 5.36125 -15 5 C-14 2 -14 2 -12 0.8125 C-7.96195446 -0.28113733 -4.15684292 -0.16301345 0 0 Z " fill="#A73F23" transform="translate(258,74)"/>
<path d="M0 0 C0 0.66 0 1.32 0 2 C-2.41955809 4.37152716 -5.05461545 6.32858954 -8 8 C-11 7.875 -11 7.875 -13 7 C-4.84931507 -1.61643836 -4.84931507 -1.61643836 0 0 Z " fill="#B66337" transform="translate(259,81)"/>
<path d="M0 0 C1.32 0.66 2.64 1.32 4 2 C-2.89715536 7.88183807 -2.89715536 7.88183807 -7.5 8.375 C-8.325 8.25125 -9.15 8.1275 -10 8 C-9.67 6.68 -9.34 5.36 -9 4 C-7.68 3.67 -6.36 3.34 -5 3 C-5 3.66 -5 4.32 -5 5 C-3.35 4.34 -1.7 3.68 0 3 C0 2.01 0 1.02 0 0 Z " fill="#B35C33" transform="translate(255,167)"/>
<path d="M0 0 C0.33 0 0.66 0 1 0 C1.33 1.65 1.66 3.3 2 5 C2.66 4.34 3.32 3.68 4 3 C5.0625 4.8125 5.0625 4.8125 6 7 C5.67 7.99 5.34 8.98 5 10 C4.34 10 3.68 10 3 10 C2.67 10.66 2.34 11.32 2 12 C-0.13586678 8.79619983 -0.23132175 7.98060033 -0.125 4.3125 C-0.10695313 3.50425781 -0.08890625 2.69601563 -0.0703125 1.86328125 C-0.04710937 1.24839844 -0.02390625 0.63351563 0 0 Z " fill="#D7A86B" transform="translate(266,85)"/>
<path d="M0 0 C-0.66 1.32 -1.32 2.64 -2 4 C-1.34 4.33 -0.68 4.66 0 5 C0 5.66 0 6.32 0 7 C-2.31 7 -4.62 7 -7 7 C-6.61402985 4.20171644 -6.19863427 3.1794116 -4.0625 1.25 C-2 0 -2 0 0 0 Z " fill="#A84225" transform="translate(249,83)"/>
<path d="M0 0 C2.66735273 2.48952921 4.55746343 4.63408134 6 8 C5.01 8 4.02 8 3 8 C3.33 8.99 3.66 9.98 4 11 C3.34 11 2.68 11 2 11 C1.34 7.37 0.68 3.74 0 0 Z " fill="#D0985F" transform="translate(265,166)"/>
<path d="M0 0 C0.433125 0.495 0.86625 0.99 1.3125 1.5 C2.99740483 3.33218192 2.99740483 3.33218192 6 3 C6 3.99 6 4.98 6 6 C4.35 5.67 2.7 5.34 1 5 C0.67 3.35 0.34 1.7 0 0 Z " fill="#A94425" transform="translate(265,93)"/>
<path d="M0 0 C0.33 0 0.66 0 1 0 C1 3.96 1 7.92 1 12 C0.67 12 0.34 12 0 12 C-0.2165625 10.6078125 -0.2165625 10.6078125 -0.4375 9.1875 C-0.92100111 5.99274889 -0.92100111 5.99274889 -2 3 C-1.34 2.01 -0.68 1.02 0 0 Z " fill="#DEB875" transform="translate(262,168)"/>
<path d="M0 0 C0.66 0.33 1.32 0.66 2 1 C-2.39453125 5.00390625 -2.39453125 5.00390625 -4 6 C-4.99 5.67 -5.98 5.34 -7 5 C-4.69 3.35 -2.38 1.7 0 0 Z " fill="#ECD48B" transform="translate(254,81)"/>
<path d="M0 0 C0.99 0 1.98 0 3 0 C3 0.99 3 1.98 3 3 C3.99 3.33 4.98 3.66 6 4 C4.02 4 2.04 4 0 4 C0 2.68 0 1.36 0 0 Z " fill="#A74023" transform="translate(246,163)"/>
<path d="M0 0 C0 0.33 0 0.66 0 1 C-3.3 1.33 -6.6 1.66 -10 2 C-7.85732894 -2.28534211 -3.95706306 -0.79141261 0 0 Z " fill="#F3E497" transform="translate(262,160)"/>
<path d="M0 0 C1.65 0 3.3 0 5 0 C5.33 0.66 5.66 1.32 6 2 C3.69 2.66 1.38 3.32 -1 4 C-0.67 2.68 -0.34 1.36 0 0 Z " fill="#EFDB90" transform="translate(78,95)"/>
<path d="M0 0 C0.99 0.33 1.98 0.66 3 1 C2.67 2.32 2.34 3.64 2 5 C0.68 5 -0.64 5 -2 5 C-1.125 1.125 -1.125 1.125 0 0 Z " fill="#AB4A28" transform="translate(247,170)"/>
</svg>
